<svg width="29" height="39" viewBox="0 0 29 39" fill="none" xmlns="http://www.w3.org/2000/svg">
<path d="M7.26562 33.293C7.16016 34.1953 6.82617 34.8926 6.26367 35.3848C5.70508 35.873 4.96094 36.1172 4.03125 36.1172C3.02344 36.1172 2.21484 35.7559 1.60547 35.0332C1 34.3105 0.697266 33.3438 0.697266 32.1328V31.3125C0.697266 30.5195 0.837891 29.8223 1.11914 29.2207C1.4043 28.6191 1.80664 28.1582 2.32617 27.8379C2.8457 27.5137 3.44727 27.3516 4.13086 27.3516C5.03711 27.3516 5.76367 27.6055 6.31055 28.1133C6.85742 28.6172 7.17578 29.3164 7.26562 30.2109H6.13477C6.03711 29.5312 5.82422 29.0391 5.49609 28.7344C5.17188 28.4297 4.7168 28.2773 4.13086 28.2773C3.41211 28.2773 2.84766 28.543 2.4375 29.0742C2.03125 29.6055 1.82812 30.3613 1.82812 31.3418V32.168C1.82812 33.0938 2.02148 33.8301 2.4082 34.377C2.79492 34.9238 3.33594 35.1973 4.03125 35.1973C4.65625 35.1973 5.13477 35.0566 5.4668 34.7754C5.80273 34.4902 6.02539 33.9961 6.13477 33.293H7.26562ZM8.34961 32.7715C8.34961 32.1504 8.4707 31.5918 8.71289 31.0957C8.95898 30.5996 9.29883 30.2168 9.73242 29.9473C10.1699 29.6777 10.668 29.543 11.2266 29.543C12.0898 29.543 12.7871 29.8418 13.3184 30.4395C13.8535 31.0371 14.1211 31.832 14.1211 32.8242V32.9004C14.1211 33.5176 14.002 34.0723 13.7637 34.5645C13.5293 35.0527 13.1914 35.4336 12.75 35.707C12.3125 35.9805 11.8086 36.1172 11.2383 36.1172C10.3789 36.1172 9.68164 35.8184 9.14648 35.2207C8.61523 34.623 8.34961 33.832 8.34961 32.8477V32.7715ZM9.43945 32.9004C9.43945 33.6035 9.60156 34.168 9.92578 34.5938C10.2539 35.0195 10.6914 35.2324 11.2383 35.2324C11.7891 35.2324 12.2266 35.0176 12.5508 34.5879C12.875 34.1543 13.0371 33.5488 13.0371 32.7715C13.0371 32.0762 12.8711 31.5137 12.5391 31.084C12.2109 30.6504 11.7734 30.4336 11.2266 30.4336C10.6914 30.4336 10.2598 30.6465 9.93164 31.0723C9.60352 31.498 9.43945 32.1074 9.43945 32.9004ZM16.6582 36H15.5742V27H16.6582V36ZM18.1113 32.7715C18.1113 32.1504 18.2324 31.5918 18.4746 31.0957C18.7207 30.5996 19.0605 30.2168 19.4941 29.9473C19.9316 29.6777 20.4297 29.543 20.9883 29.543C21.8516 29.543 22.5488 29.8418 23.0801 30.4395C23.6152 31.0371 23.8828 31.832 23.8828 32.8242V32.9004C23.8828 33.5176 23.7637 34.0723 23.5254 34.5645C23.291 35.0527 22.9531 35.4336 22.5117 35.707C22.0742 35.9805 21.5703 36.1172 21 36.1172C20.1406 36.1172 19.4434 35.8184 18.9082 35.2207C18.377 34.623 18.1113 33.832 18.1113 32.8477V32.7715ZM19.2012 32.9004C19.2012 33.6035 19.3633 34.168 19.6875 34.5938C20.0156 35.0195 20.4531 35.2324 21 35.2324C21.5508 35.2324 21.9883 35.0176 22.3125 34.5879C22.6367 34.1543 22.7988 33.5488 22.7988 32.7715C22.7988 32.0762 22.6328 31.5137 22.3008 31.084C21.9727 30.6504 21.5352 30.4336 20.9883 30.4336C20.4531 30.4336 20.0215 30.6465 19.6934 31.0723C19.3652 31.498 19.2012 32.1074 19.2012 32.9004ZM28.3066 30.6328C28.1426 30.6055 27.9648 30.5918 27.7734 30.5918C27.0625 30.5918 26.5801 30.8945 26.3262 31.5V36H25.2422V29.6602H26.2969L26.3145 30.3926C26.6699 29.8262 27.1738 29.543 27.8262 29.543C28.0371 29.543 28.1973 29.5703 28.3066 29.625V30.6328Z" fill="#FF5C00"/>
<path d="M11.9752 0.245856C7.1216 1.19314 3.21037 5.09457 2.25332 9.93351C0.446633 19.0645 8.68413 25.8713 14.8903 24.9093C16.9021 24.5968 17.8885 22.2433 16.9656 20.4317C15.8376 18.2149 17.449 15.627 19.9393 15.627H23.831C25.5791 15.627 26.9951 14.1816 27 12.4384C26.9756 4.743 19.9735 -1.31179 11.9752 0.245856ZM6.68702 15.627C5.82274 15.627 5.12448 14.9287 5.12448 14.0644C5.12448 13.2002 5.82274 12.5019 6.68702 12.5019C7.55129 12.5019 8.24955 13.2002 8.24955 14.0644C8.24955 14.9287 7.55129 15.627 6.68702 15.627ZM8.24955 9.37686C7.38527 9.37686 6.68702 8.67861 6.68702 7.81434C6.68702 6.95006 7.38527 6.25181 8.24955 6.25181C9.11383 6.25181 9.81209 6.95006 9.81209 7.81434C9.81209 8.67861 9.11383 9.37686 8.24955 9.37686ZM14.4997 6.25181C13.6354 6.25181 12.9372 5.55356 12.9372 4.68929C12.9372 3.82501 13.6354 3.12676 14.4997 3.12676C15.364 3.12676 16.0622 3.82501 16.0622 4.68929C16.0622 5.55356 15.364 6.25181 14.4997 6.25181ZM20.7499 9.37686C19.8856 9.37686 19.1873 8.67861 19.1873 7.81434C19.1873 6.95006 19.8856 6.25181 20.7499 6.25181C21.6141 6.25181 22.3124 6.95006 22.3124 7.81434C22.3124 8.67861 21.6141 9.37686 20.7499 9.37686Z" fill="url(#paint0_linear)"/>
<defs>
<linearGradient id="paint0_linear" x1="14.5" y1="0" x2="14.5" y2="25" gradientUnits="userSpaceOnUse">
<stop stop-color="#FE2A72"/>
<stop offset="1" stop-color="#FD8B28"/>
</linearGradient>
</defs>
</svg>
