<svg width="34" height="37" viewBox="0 0 34 37" fill="none" xmlns="http://www.w3.org/2000/svg">
<path d="M26.2857 1.43751H20.9286L20.5089 0.597469C20.42 0.417877 20.2831 0.266809 20.1135 0.161259C19.944 0.0557084 19.7485 -0.000136022 19.5491 7.87602e-06H14.4464C14.2475 -0.00076166 14.0524 0.0548745 13.8834 0.160542C13.7144 0.26621 13.5785 0.417635 13.4911 0.597469L13.0714 1.43751H7.71429C7.52485 1.43751 7.34316 1.51323 7.20921 1.64802C7.07525 1.78282 7 1.96563 7 2.15626V3.59376C7 3.78438 7.07525 3.9672 7.20921 4.10199C7.34316 4.23678 7.52485 4.31251 7.71429 4.31251H26.2857C26.4752 4.31251 26.6568 4.23678 26.7908 4.10199C26.9247 3.9672 27 3.78438 27 3.59376V2.15626C27 1.96563 26.9247 1.78282 26.7908 1.64802C26.6568 1.51323 26.4752 1.43751 26.2857 1.43751V1.43751ZM9.375 20.9785C9.40907 21.5259 9.64918 22.0397 10.0465 22.4153C10.4437 22.7908 10.9683 22.9999 11.5134 23H22.4866C23.0317 22.9999 23.5563 22.7908 23.9535 22.4153C24.3508 22.0397 24.5909 21.5259 24.625 20.9785L25.5714 5.75001H8.42857L9.375 20.9785Z" fill="url(#paint0_linear)"/>
<path d="M0.990234 34V25.4688H3.39844C4.14062 25.4688 4.79688 25.6328 5.36719 25.9609C5.9375 26.2891 6.37695 26.7559 6.68555 27.3613C6.99805 27.9668 7.15625 28.6621 7.16016 29.4473V29.9922C7.16016 30.7969 7.00391 31.502 6.69141 32.1074C6.38281 32.7129 5.93945 33.1777 5.36133 33.502C4.78711 33.8262 4.11719 33.9922 3.35156 34H0.990234ZM2.11523 26.3945V33.0801H3.29883C4.16602 33.0801 4.83984 32.8105 5.32031 32.2715C5.80469 31.7324 6.04688 30.9648 6.04688 29.9688V29.4707C6.04688 28.502 5.81836 27.75 5.36133 27.2148C4.9082 26.6758 4.26367 26.4023 3.42773 26.3945H2.11523ZM11.3262 34.1172C10.4668 34.1172 9.76758 33.8359 9.22852 33.2734C8.68945 32.707 8.41992 31.9512 8.41992 31.0059V30.8066C8.41992 30.1777 8.53906 29.6172 8.77734 29.125C9.01953 28.6289 9.35547 28.2422 9.78516 27.9648C10.2188 27.6836 10.6875 27.543 11.1914 27.543C12.0156 27.543 12.6562 27.8145 13.1133 28.3574C13.5703 28.9004 13.7988 29.6777 13.7988 30.6895V31.1406H9.50391C9.51953 31.7656 9.70117 32.2715 10.0488 32.6582C10.4004 33.041 10.8457 33.2324 11.3848 33.2324C11.7676 33.2324 12.0918 33.1543 12.3574 32.998C12.623 32.8418 12.8555 32.6348 13.0547 32.377L13.7168 32.8926C13.1855 33.709 12.3887 34.1172 11.3262 34.1172ZM11.1914 28.4336C10.7539 28.4336 10.3867 28.5938 10.0898 28.9141C9.79297 29.2305 9.60938 29.6758 9.53906 30.25H12.7148V30.168C12.6836 29.6172 12.5352 29.1914 12.2695 28.8906C12.0039 28.5859 11.6445 28.4336 11.1914 28.4336ZM16.2363 34H15.1523V25H16.2363V34ZM20.6074 34.1172C19.748 34.1172 19.0488 33.8359 18.5098 33.2734C17.9707 32.707 17.7012 31.9512 17.7012 31.0059V30.8066C17.7012 30.1777 17.8203 29.6172 18.0586 29.125C18.3008 28.6289 18.6367 28.2422 19.0664 27.9648C19.5 27.6836 19.9688 27.543 20.4727 27.543C21.2969 27.543 21.9375 27.8145 22.3945 28.3574C22.8516 28.9004 23.0801 29.6777 23.0801 30.6895V31.1406H18.7852C18.8008 31.7656 18.9824 32.2715 19.3301 32.6582C19.6816 33.041 20.127 33.2324 20.666 33.2324C21.0488 33.2324 21.373 33.1543 21.6387 32.998C21.9043 32.8418 22.1367 32.6348 22.3359 32.377L22.998 32.8926C22.4668 33.709 21.6699 34.1172 20.6074 34.1172ZM20.4727 28.4336C20.0352 28.4336 19.668 28.5938 19.3711 28.9141C19.0742 29.2305 18.8906 29.6758 18.8203 30.25H21.9961V30.168C21.9648 29.6172 21.8164 29.1914 21.5508 28.8906C21.2852 28.5859 20.9258 28.4336 20.4727 28.4336ZM25.8105 26.125V27.6602H26.9941V28.498H25.8105V32.4297C25.8105 32.6836 25.8633 32.875 25.9688 33.0039C26.0742 33.1289 26.2539 33.1914 26.5078 33.1914C26.6328 33.1914 26.8047 33.168 27.0234 33.1211V34C26.7383 34.0781 26.4609 34.1172 26.1914 34.1172C25.707 34.1172 25.3418 33.9707 25.0957 33.6777C24.8496 33.3848 24.7266 32.9688 24.7266 32.4297V28.498H23.5723V27.6602H24.7266V26.125H25.8105ZM30.8965 34.1172C30.0371 34.1172 29.3379 33.8359 28.7988 33.2734C28.2598 32.707 27.9902 31.9512 27.9902 31.0059V30.8066C27.9902 30.1777 28.1094 29.6172 28.3477 29.125C28.5898 28.6289 28.9258 28.2422 29.3555 27.9648C29.7891 27.6836 30.2578 27.543 30.7617 27.543C31.5859 27.543 32.2266 27.8145 32.6836 28.3574C33.1406 28.9004 33.3691 29.6777 33.3691 30.6895V31.1406H29.0742C29.0898 31.7656 29.2715 32.2715 29.6191 32.6582C29.9707 33.041 30.416 33.2324 30.9551 33.2324C31.3379 33.2324 31.6621 33.1543 31.9277 32.998C32.1934 32.8418 32.4258 32.6348 32.625 32.377L33.2871 32.8926C32.7559 33.709 31.959 34.1172 30.8965 34.1172ZM30.7617 28.4336C30.3242 28.4336 29.957 28.5938 29.6602 28.9141C29.3633 29.2305 29.1797 29.6758 29.1094 30.25H32.2852V30.168C32.2539 29.6172 32.1055 29.1914 31.8398 28.8906C31.5742 28.5859 31.2148 28.4336 30.7617 28.4336Z" fill="#FF1100"/>
<defs>
<linearGradient id="paint0_linear" x1="17" y1="0" x2="17" y2="23" gradientUnits="userSpaceOnUse">
<stop stop-color="#FF0000"/>
<stop offset="1" stop-color="#FFE600"/>
</linearGradient>
</defs>
</svg>
