<svg width="28" height="38" viewBox="0 0 28 38" fill="none" xmlns="http://www.w3.org/2000/svg">
<path d="M25.6406 11.1406C25.6406 17.2934 20.6528 22.2812 14.5 22.2812C8.34719 22.2812 3.35938 17.2934 3.35938 11.1406C3.35938 4.98781 8.34719 0 14.5 0C20.6528 0 25.6406 4.98781 25.6406 11.1406ZM13.2114 17.0395L21.477 8.77387C21.7577 8.4932 21.7577 8.0381 21.477 7.75742L20.4605 6.74098C20.1799 6.46026 19.7248 6.46026 19.4441 6.74098L12.7031 13.4819L9.55594 10.3347C9.27527 10.054 8.82017 10.054 8.53945 10.3347L7.523 11.3511C7.24233 11.6318 7.24233 12.0869 7.523 12.3676L12.1949 17.0395C12.4756 17.3202 12.9307 17.3202 13.2114 17.0395Z" fill="url(#paint0_linear)"/>
<path d="M0.990234 34.6406V26.1094H3.39844C4.14062 26.1094 4.79688 26.2734 5.36719 26.6016C5.9375 26.9297 6.37695 27.3965 6.68555 28.002C6.99805 28.6074 7.15625 29.3027 7.16016 30.0879V30.6328C7.16016 31.4375 7.00391 32.1426 6.69141 32.748C6.38281 33.3535 5.93945 33.8184 5.36133 34.1426C4.78711 34.4668 4.11719 34.6328 3.35156 34.6406H0.990234ZM2.11523 27.0352V33.7207H3.29883C4.16602 33.7207 4.83984 33.4512 5.32031 32.9121C5.80469 32.373 6.04688 31.6055 6.04688 30.6094V30.1113C6.04688 29.1426 5.81836 28.3906 5.36133 27.8555C4.9082 27.3164 4.26367 27.043 3.42773 27.0352H2.11523ZM8.4082 31.4121C8.4082 30.791 8.5293 30.2324 8.77148 29.7363C9.01758 29.2402 9.35742 28.8574 9.79102 28.5879C10.2285 28.3184 10.7266 28.1836 11.2852 28.1836C12.1484 28.1836 12.8457 28.4824 13.377 29.0801C13.9121 29.6777 14.1797 30.4727 14.1797 31.4648V31.541C14.1797 32.1582 14.0605 32.7129 13.8223 33.2051C13.5879 33.6934 13.25 34.0742 12.8086 34.3477C12.3711 34.6211 11.8672 34.7578 11.2969 34.7578C10.4375 34.7578 9.74023 34.459 9.20508 33.8613C8.67383 33.2637 8.4082 32.4727 8.4082 31.4883V31.4121ZM9.49805 31.541C9.49805 32.2441 9.66016 32.8086 9.98438 33.2344C10.3125 33.6602 10.75 33.873 11.2969 33.873C11.8477 33.873 12.2852 33.6582 12.6094 33.2285C12.9336 32.7949 13.0957 32.1895 13.0957 31.4121C13.0957 30.7168 12.9297 30.1543 12.5977 29.7246C12.2695 29.291 11.832 29.0742 11.2852 29.0742C10.75 29.0742 10.3184 29.2871 9.99023 29.7129C9.66211 30.1387 9.49805 30.748 9.49805 31.541ZM16.5645 28.3008L16.5996 29.0977C17.084 28.4883 17.7168 28.1836 18.498 28.1836C19.8379 28.1836 20.5137 28.9395 20.5254 30.4512V34.6406H19.4414V30.4453C19.4375 29.9883 19.332 29.6504 19.125 29.4316C18.9219 29.2129 18.6035 29.1035 18.1699 29.1035C17.8184 29.1035 17.5098 29.1973 17.2441 29.3848C16.9785 29.5723 16.7715 29.8184 16.623 30.123V34.6406H15.5391V28.3008H16.5645ZM24.791 34.7578C23.9316 34.7578 23.2324 34.4766 22.6934 33.9141C22.1543 33.3477 21.8848 32.5918 21.8848 31.6465V31.4473C21.8848 30.8184 22.0039 30.2578 22.2422 29.7656C22.4844 29.2695 22.8203 28.8828 23.25 28.6055C23.6836 28.3242 24.1523 28.1836 24.6562 28.1836C25.4805 28.1836 26.1211 28.4551 26.5781 28.998C27.0352 29.541 27.2637 30.3184 27.2637 31.3301V31.7812H22.9688C22.9844 32.4062 23.166 32.9121 23.5137 33.2988C23.8652 33.6816 24.3105 33.873 24.8496 33.873C25.2324 33.873 25.5566 33.7949 25.8223 33.6387C26.0879 33.4824 26.3203 33.2754 26.5195 33.0176L27.1816 33.5332C26.6504 34.3496 25.8535 34.7578 24.791 34.7578ZM24.6562 29.0742C24.2188 29.0742 23.8516 29.2344 23.5547 29.5547C23.2578 29.8711 23.0742 30.3164 23.0039 30.8906H26.1797V30.8086C26.1484 30.2578 26 29.832 25.7344 29.5312C25.4688 29.2266 25.1094 29.0742 24.6562 29.0742Z" fill="#03FF59"/>
<defs>
<linearGradient id="paint0_linear" x1="14.5" y1="0" x2="14.5" y2="22.2812" gradientUnits="userSpaceOnUse">
<stop stop-color="#68E7E7"/>
<stop offset="1" stop-color="#68E877"/>
</linearGradient>
</defs>
</svg>
