<svg width="26" height="39" viewBox="0 0 26 39" fill="none" xmlns="http://www.w3.org/2000/svg">
<path d="M18.1598 15.4947L19.6042 14.0574C19.8299 13.8328 20.2227 13.99 20.2227 14.3134V20.8441C20.2227 22.0343 19.2522 23 18.0559 23H2.16671C0.970507 23 0 22.0343 0 20.8441V5.03388C0 3.84363 0.970507 2.87795 2.16671 2.87795H14.5125C14.833 2.87795 14.9955 3.26422 14.7698 3.49329L13.3253 4.93058C13.2576 4.99795 13.1673 5.03388 13.068 5.03388H2.16671V20.8441H18.0559V15.7462C18.0559 15.6519 18.0921 15.562 18.1598 15.4947ZM25.2287 6.43075L13.3749 18.2255L9.2943 18.6747C8.11163 18.8049 7.10501 17.8123 7.23592 16.6265L7.68732 12.5662L19.541 0.77142C20.5747 -0.25714 22.2449 -0.25714 23.2741 0.77142L25.2242 2.71176C26.2579 3.74032 26.2579 5.40668 25.2287 6.43075V6.43075ZM20.7689 7.81863L18.1462 5.20905L9.75924 13.5588L9.42972 16.4918L12.3774 16.1639L20.7689 7.81863ZM23.6939 4.23888L21.7439 2.29854C21.5588 2.11439 21.2564 2.11439 21.0758 2.29854L19.681 3.68642L22.3036 6.296L23.6984 4.90812C23.879 4.71947 23.879 4.42303 23.6939 4.23888V4.23888Z" fill="url(#paint0_linear)"/>
<path d="M5.8125 32.0566H2.11523V35.0801H6.41016V36H0.990234V27.4688H6.35156V28.3945H2.11523V31.1367H5.8125V32.0566ZM7.25977 32.7773C7.25977 31.8047 7.49023 31.0234 7.95117 30.4336C8.41211 29.8398 9.01562 29.543 9.76172 29.543C10.5039 29.543 11.0918 29.7969 11.5254 30.3047V27H12.6094V36H11.6133L11.5605 35.3203C11.127 35.8516 10.5234 36.1172 9.75 36.1172C9.01562 36.1172 8.41602 35.8164 7.95117 35.2148C7.49023 34.6133 7.25977 33.8281 7.25977 32.8594V32.7773ZM8.34375 32.9004C8.34375 33.6191 8.49219 34.1816 8.78906 34.5879C9.08594 34.9941 9.49609 35.1973 10.0195 35.1973C10.707 35.1973 11.209 34.8887 11.5254 34.2715V31.3594C11.2012 30.7617 10.7031 30.4629 10.0312 30.4629C9.5 30.4629 9.08594 30.668 8.78906 31.0781C8.49219 31.4883 8.34375 32.0957 8.34375 32.9004ZM15.4746 36H14.3906V29.6602H15.4746V36ZM14.3027 27.9785C14.3027 27.8027 14.3555 27.6543 14.4609 27.5332C14.5703 27.4121 14.7305 27.3516 14.9414 27.3516C15.1523 27.3516 15.3125 27.4121 15.4219 27.5332C15.5312 27.6543 15.5859 27.8027 15.5859 27.9785C15.5859 28.1543 15.5312 28.3008 15.4219 28.418C15.3125 28.5352 15.1523 28.5938 14.9414 28.5938C14.7305 28.5938 14.5703 28.5352 14.4609 28.418C14.3555 28.3008 14.3027 28.1543 14.3027 27.9785ZM18.6855 28.125V29.6602H19.8691V30.498H18.6855V34.4297C18.6855 34.6836 18.7383 34.875 18.8438 35.0039C18.9492 35.1289 19.1289 35.1914 19.3828 35.1914C19.5078 35.1914 19.6797 35.168 19.8984 35.1211V36C19.6133 36.0781 19.3359 36.1172 19.0664 36.1172C18.582 36.1172 18.2168 35.9707 17.9707 35.6777C17.7246 35.3848 17.6016 34.9688 17.6016 34.4297V30.498H16.4473V29.6602H17.6016V28.125H18.6855Z" fill="#EE00C4"/>
<defs>
<linearGradient id="paint0_linear" x1="13" y1="0" x2="13" y2="23" gradientUnits="userSpaceOnUse">
<stop stop-color="#FF00B8"/>
<stop offset="1" stop-color="#9E00FF"/>
</linearGradient>
</defs>
</svg>
