<svg width="50" height="38" viewBox="0 0 50 38" fill="none" xmlns="http://www.w3.org/2000/svg">
<path d="M34.2143 19.7143H33.0647L26.6459 1.11355C26.5402 0.788746 26.3398 0.506702 26.0729 0.306993C25.8061 0.107284 25.4861 -6.82841e-05 25.1579 3.25863e-08H22.8421C22.5139 -6.82841e-05 22.1939 0.107284 21.9271 0.306993C21.6602 0.506702 21.4598 0.788746 21.3541 1.11355L14.9353 19.7143H13.7857C13.5773 19.7143 13.3775 19.8008 13.2301 19.9549C13.0828 20.1089 13 20.3179 13 20.5357V22.1786C13 22.3964 13.0828 22.6054 13.2301 22.7594C13.3775 22.9135 13.5773 23 13.7857 23H20.0714C20.2798 23 20.4797 22.9135 20.627 22.7594C20.7744 22.6054 20.8571 22.3964 20.8571 22.1786V20.5357C20.8571 20.3179 20.7744 20.1089 20.627 19.9549C20.4797 19.8008 20.2798 19.7143 20.0714 19.7143H19.1099L20.2541 16.4286H27.7459L28.8901 19.7143H27.9286C27.7202 19.7143 27.5203 19.8008 27.373 19.9549C27.2256 20.1089 27.1429 20.3179 27.1429 20.5357V22.1786C27.1429 22.3964 27.2256 22.6054 27.373 22.7594C27.5203 22.9135 27.7202 23 27.9286 23H34.2143C34.4227 23 34.6225 22.9135 34.7699 22.7594C34.9172 22.6054 35 22.3964 35 22.1786V20.5357C35 20.3179 34.9172 20.1089 34.7699 19.9549C34.6225 19.8008 34.4227 19.7143 34.2143 19.7143ZM21.6846 12.3214L24 5.6735L26.3154 12.3214H21.6846Z" fill="url(#paint0_linear)"/>
<path d="M7.54688 34.1875H6.41602L2.12109 27.6133V34.1875H0.990234V25.6562H2.12109L6.42773 32.2598V25.6562H7.54688V34.1875ZM12.0059 34.3047C11.1465 34.3047 10.4473 34.0234 9.9082 33.4609C9.36914 32.8945 9.09961 32.1387 9.09961 31.1934V30.9941C9.09961 30.3652 9.21875 29.8047 9.45703 29.3125C9.69922 28.8164 10.0352 28.4297 10.4648 28.1523C10.8984 27.8711 11.3672 27.7305 11.8711 27.7305C12.6953 27.7305 13.3359 28.002 13.793 28.5449C14.25 29.0879 14.4785 29.8652 14.4785 30.877V31.3281H10.1836C10.1992 31.9531 10.3809 32.459 10.7285 32.8457C11.0801 33.2285 11.5254 33.4199 12.0645 33.4199C12.4473 33.4199 12.7715 33.3418 13.0371 33.1855C13.3027 33.0293 13.5352 32.8223 13.7344 32.5645L14.3965 33.0801C13.8652 33.8965 13.0684 34.3047 12.0059 34.3047ZM11.8711 28.6211C11.4336 28.6211 11.0664 28.7812 10.7695 29.1016C10.4727 29.418 10.2891 29.8633 10.2188 30.4375H13.3945V30.3555C13.3633 29.8047 13.2148 29.3789 12.9492 29.0781C12.6836 28.7734 12.3242 28.6211 11.8711 28.6211ZM21.3516 32.6934L22.5703 27.8477H23.6543L21.8086 34.1875H20.9297L19.3887 29.3828L17.8887 34.1875H17.0098L15.1699 27.8477H16.248L17.4961 32.5938L18.9727 27.8477H19.8457L21.3516 32.6934ZM33.5684 26.582H30.8262V34.1875H29.707V26.582H26.9707V25.6562H33.5684V26.582ZM36.709 34.3047C35.8496 34.3047 35.1504 34.0234 34.6113 33.4609C34.0723 32.8945 33.8027 32.1387 33.8027 31.1934V30.9941C33.8027 30.3652 33.9219 29.8047 34.1602 29.3125C34.4023 28.8164 34.7383 28.4297 35.168 28.1523C35.6016 27.8711 36.0703 27.7305 36.5742 27.7305C37.3984 27.7305 38.0391 28.002 38.4961 28.5449C38.9531 29.0879 39.1816 29.8652 39.1816 30.877V31.3281H34.8867C34.9023 31.9531 35.084 32.459 35.4316 32.8457C35.7832 33.2285 36.2285 33.4199 36.7676 33.4199C37.1504 33.4199 37.4746 33.3418 37.7402 33.1855C38.0059 33.0293 38.2383 32.8223 38.4375 32.5645L39.0996 33.0801C38.5684 33.8965 37.7715 34.3047 36.709 34.3047ZM36.5742 28.6211C36.1367 28.6211 35.7695 28.7812 35.4727 29.1016C35.1758 29.418 34.9922 29.8633 34.9219 30.4375H38.0977V30.3555C38.0664 29.8047 37.918 29.3789 37.6523 29.0781C37.3867 28.7734 37.0273 28.6211 36.5742 28.6211ZM42.5684 30.1621L43.9746 27.8477H45.2402L43.166 30.9824L45.3047 34.1875H44.0508L42.5859 31.8145L41.1211 34.1875H39.8613L42 30.9824L39.9258 27.8477H41.1797L42.5684 30.1621ZM47.8652 26.3125V27.8477H49.0488V28.6855H47.8652V32.6172C47.8652 32.8711 47.918 33.0625 48.0234 33.1914C48.1289 33.3164 48.3086 33.3789 48.5625 33.3789C48.6875 33.3789 48.8594 33.3555 49.0781 33.3086V34.1875C48.793 34.2656 48.5156 34.3047 48.2461 34.3047C47.7617 34.3047 47.3965 34.1582 47.1504 33.8652C46.9043 33.5723 46.7812 33.1562 46.7812 32.6172V28.6855H45.627V27.8477H46.7812V26.3125H47.8652Z" fill="#FFC700"/>
<defs>
<linearGradient id="paint0_linear" x1="24" y1="0" x2="24" y2="23" gradientUnits="userSpaceOnUse">
<stop stop-color="#FBE100"/>
<stop offset="1" stop-color="#FE8800"/>
</linearGradient>
</defs>
</svg>
