<svg width="33" height="40" viewBox="0 0 33 40" fill="none" xmlns="http://www.w3.org/2000/svg">
<path d="M4.37988 31.2466C3.17383 30.8999 2.29492 30.4751 1.74316 29.9722C1.19629 29.4644 0.922852 28.8394 0.922852 28.0972C0.922852 27.2573 1.25732 26.564 1.92627 26.0171C2.6001 25.4653 3.47412 25.1895 4.54834 25.1895C5.28076 25.1895 5.93262 25.3311 6.50391 25.6143C7.08008 25.8975 7.52441 26.2881 7.83691 26.7861C8.1543 27.2842 8.31299 27.8286 8.31299 28.4194H6.89941C6.89941 27.7749 6.69434 27.2695 6.28418 26.9033C5.87402 26.5322 5.29541 26.3467 4.54834 26.3467C3.85498 26.3467 3.31299 26.5005 2.92236 26.8081C2.53662 27.1108 2.34375 27.5332 2.34375 28.0752C2.34375 28.5098 2.52686 28.8784 2.89307 29.1812C3.26416 29.479 3.8916 29.7524 4.77539 30.0015C5.66406 30.2505 6.35742 30.5264 6.85547 30.8291C7.3584 31.127 7.72949 31.4761 7.96875 31.8765C8.21289 32.2769 8.33496 32.748 8.33496 33.29C8.33496 34.1543 7.99805 34.8477 7.32422 35.3701C6.65039 35.8877 5.74951 36.1465 4.62158 36.1465C3.88916 36.1465 3.20557 36.0073 2.5708 35.729C1.93604 35.4458 1.44531 35.0601 1.09863 34.5718C0.756836 34.0835 0.585938 33.5293 0.585938 32.9092H1.99951C1.99951 33.5537 2.23633 34.064 2.70996 34.4399C3.18848 34.811 3.82568 34.9966 4.62158 34.9966C5.36377 34.9966 5.93262 34.8452 6.32812 34.5425C6.72363 34.2397 6.92139 33.8271 6.92139 33.3047C6.92139 32.7822 6.73828 32.3794 6.37207 32.0962C6.00586 31.8081 5.3418 31.5249 4.37988 31.2466ZM14.8242 36C14.7461 35.8438 14.6826 35.5654 14.6338 35.165C14.0039 35.8193 13.252 36.1465 12.3779 36.1465C11.5967 36.1465 10.9546 35.9268 10.4517 35.4873C9.95361 35.043 9.70459 34.4814 9.70459 33.8027C9.70459 32.9775 10.0171 32.3379 10.6421 31.8838C11.272 31.4248 12.1558 31.1953 13.2935 31.1953H14.6118V30.5728C14.6118 30.0991 14.4702 29.7231 14.187 29.4448C13.9038 29.1616 13.4863 29.02 12.9346 29.02C12.4512 29.02 12.0459 29.1421 11.7188 29.3862C11.3916 29.6304 11.228 29.9258 11.228 30.2725H9.86572C9.86572 29.877 10.0049 29.4961 10.2832 29.1299C10.5664 28.7588 10.9473 28.4658 11.4258 28.251C11.9092 28.0361 12.439 27.9287 13.0151 27.9287C13.9282 27.9287 14.6436 28.1582 15.1611 28.6172C15.6787 29.0713 15.9473 29.6987 15.9668 30.4995V34.147C15.9668 34.8745 16.0596 35.4531 16.2451 35.8828V36H14.8242ZM12.5757 34.9673C13.0005 34.9673 13.4033 34.8574 13.7842 34.6377C14.165 34.418 14.4409 34.1323 14.6118 33.7808V32.1548H13.5498C11.8896 32.1548 11.0596 32.6406 11.0596 33.6123C11.0596 34.0371 11.2012 34.3691 11.4844 34.6084C11.7676 34.8477 12.1313 34.9673 12.5757 34.9673ZM20.5884 34.1616L22.5513 28.0752H23.9355L21.0938 36H20.061L17.1899 28.0752H18.5742L20.5884 34.1616ZM28.4253 36.1465C27.3511 36.1465 26.4771 35.7949 25.8032 35.0918C25.1294 34.3838 24.7925 33.439 24.7925 32.2573V32.0083C24.7925 31.2222 24.9414 30.5215 25.2393 29.9062C25.542 29.2861 25.9619 28.8027 26.499 28.4561C27.041 28.1045 27.627 27.9287 28.2568 27.9287C29.2871 27.9287 30.0879 28.2681 30.6592 28.9468C31.2305 29.6255 31.5161 30.5972 31.5161 31.8618V32.4258H26.1475C26.167 33.207 26.394 33.8394 26.8286 34.3228C27.2681 34.8013 27.8247 35.0405 28.4985 35.0405C28.9771 35.0405 29.3823 34.9429 29.7144 34.7476C30.0464 34.5522 30.3369 34.2935 30.5859 33.9712L31.4136 34.6157C30.7495 35.6362 29.7534 36.1465 28.4253 36.1465ZM28.2568 29.042C27.71 29.042 27.251 29.2422 26.8799 29.6426C26.5088 30.0381 26.2793 30.5947 26.1914 31.3125H30.1611V31.21C30.1221 30.5215 29.9365 29.9893 29.6045 29.6133C29.2725 29.2324 28.8232 29.042 28.2568 29.042Z" fill="#EFDB2A"/>
<g filter="url(#filter0_d)">
<path d="M25.3724 5.16677L21.6276 0.741667C21.2258 0.266789 20.6807 3.5117e-06 20.1124 0H8.14286C6.95938 0 6 1.13368 6 2.53219V21.1016C6 22.5001 6.95938 23.6337 8.14286 23.6337H23.8571C25.0406 23.6337 26 22.5001 26 21.1016V6.95729C26 6.28571 25.7742 5.64164 25.3724 5.16677ZM16 20.2575C14.4221 20.2575 13.1429 18.7459 13.1429 16.8812C13.1429 15.0166 14.4221 13.505 16 13.505C17.5779 13.505 18.8571 15.0166 18.8571 16.8812C18.8571 18.7459 17.5779 20.2575 16 20.2575ZM20.2857 4.19288V9.4957C20.2857 9.8453 20.0458 10.1287 19.75 10.1287H9.39286C9.09701 10.1287 8.85714 9.8453 8.85714 9.4957V4.0093C8.85714 3.6597 9.09701 3.37625 9.39286 3.37625H19.5946C19.7367 3.37625 19.873 3.44293 19.9734 3.56168L20.1288 3.74526C20.1785 3.80404 20.218 3.87382 20.2449 3.95062C20.2719 4.02743 20.2857 4.10975 20.2857 4.19288Z" fill="url(#paint0_linear)"/>
</g>
<defs>
<filter id="filter0_d" x="2" y="0" width="28" height="31.6337" filterUnits="userSpaceOnUse" color-interpolation-filters="sRGB">
<feFlood flood-opacity="0" result="BackgroundImageFix"/>
<feColorMatrix in="SourceAlpha" type="matrix" values="0 0 0 0 0 0 0 0 0 0 0 0 0 0 0 0 0 0 127 0"/>
<feOffset dy="4"/>
<feGaussianBlur stdDeviation="2"/>
<feColorMatrix type="matrix" values="0 0 0 0 1 0 0 0 0 0.917917 0 0 0 0 0.179167 0 0 0 0.25 0"/>
<feBlend mode="normal" in2="BackgroundImageFix" result="effect1_dropShadow"/>
<feBlend mode="normal" in="SourceGraphic" in2="effect1_dropShadow" result="shape"/>
</filter>
<linearGradient id="paint0_linear" x1="16" y1="0" x2="16" y2="23.6337" gradientUnits="userSpaceOnUse">
<stop stop-color="#FAFF00"/>
<stop offset="1" stop-color="#FF7A00"/>
</linearGradient>
</defs>
</svg>
