<svg width="63" height="44" viewBox="0 0 63 44" fill="none" xmlns="http://www.w3.org/2000/svg">
<path d="M8.60596 29.4995H5.17822V39.0063H3.7793V29.4995H0.358887V28.3423H8.60596V29.4995ZM12.5317 39.1528C11.4575 39.1528 10.5835 38.8013 9.90967 38.0981C9.23584 37.3901 8.89893 36.4453 8.89893 35.2637V35.0146C8.89893 34.2285 9.04785 33.5278 9.3457 32.9126C9.64844 32.2925 10.0684 31.8091 10.6055 31.4624C11.1475 31.1108 11.7334 30.9351 12.3633 30.9351C13.3936 30.9351 14.1943 31.2744 14.7656 31.9531C15.3369 32.6318 15.6226 33.6035 15.6226 34.8682V35.4321H10.2539C10.2734 36.2134 10.5005 36.8457 10.9351 37.3291C11.3745 37.8076 11.9312 38.0469 12.605 38.0469C13.0835 38.0469 13.4888 37.9492 13.8208 37.7539C14.1528 37.5586 14.4434 37.2998 14.6924 36.9775L15.52 37.6221C14.856 38.6426 13.8599 39.1528 12.5317 39.1528ZM12.3633 32.0483C11.8164 32.0483 11.3574 32.2485 10.9863 32.6489C10.6152 33.0444 10.3857 33.6011 10.2979 34.3188H14.2676V34.2163C14.2285 33.5278 14.043 32.9956 13.7109 32.6196C13.3789 32.2388 12.9297 32.0483 12.3633 32.0483ZM18.4717 31.0815L18.5083 31.9604C19.0894 31.2769 19.873 30.9351 20.8594 30.9351C21.9678 30.9351 22.7222 31.3599 23.1226 32.2095C23.3862 31.8286 23.728 31.521 24.1479 31.2866C24.5728 31.0522 25.0732 30.9351 25.6494 30.9351C27.3877 30.9351 28.2715 31.8555 28.3008 33.6963V39.0063H26.9458V33.7769C26.9458 33.2104 26.8164 32.7881 26.5576 32.5098C26.2988 32.2266 25.8643 32.085 25.2539 32.085C24.751 32.085 24.3335 32.2363 24.0015 32.5391C23.6694 32.8369 23.4766 33.2397 23.4229 33.7476V39.0063H22.0605V33.8135C22.0605 32.6611 21.4966 32.085 20.3687 32.085C19.48 32.085 18.8721 32.4634 18.5449 33.2202V39.0063H17.1899V31.0815H18.4717ZM37.0459 35.1318C37.0459 36.3379 36.77 37.3096 36.2183 38.0469C35.6665 38.7842 34.9194 39.1528 33.9771 39.1528C33.0151 39.1528 32.2583 38.8477 31.7065 38.2373V42.0532H30.3516V31.0815H31.5894L31.6553 31.9604C32.207 31.2769 32.9736 30.9351 33.9551 30.9351C34.9072 30.9351 35.6592 31.2939 36.2109 32.0117C36.7676 32.7295 37.0459 33.728 37.0459 35.0073V35.1318ZM35.6909 34.978C35.6909 34.0845 35.5005 33.3789 35.1196 32.8613C34.7388 32.3438 34.2163 32.085 33.5522 32.085C32.7319 32.085 32.1167 32.4487 31.7065 33.1763V36.9629C32.1118 37.6855 32.7319 38.0469 33.5669 38.0469C34.2163 38.0469 34.7314 37.7905 35.1123 37.2778C35.498 36.7603 35.6909 35.9937 35.6909 34.978ZM40.2466 39.0063H38.8916V27.7563H40.2466V39.0063ZM47.3145 39.0063C47.2363 38.8501 47.1729 38.5718 47.124 38.1714C46.4941 38.8257 45.7422 39.1528 44.8682 39.1528C44.0869 39.1528 43.4448 38.9331 42.9419 38.4937C42.4438 38.0493 42.1948 37.4878 42.1948 36.8091C42.1948 35.9839 42.5073 35.3442 43.1323 34.8901C43.7622 34.4312 44.646 34.2017 45.7837 34.2017H47.1021V33.5791C47.1021 33.1055 46.9604 32.7295 46.6772 32.4512C46.394 32.168 45.9766 32.0264 45.4248 32.0264C44.9414 32.0264 44.5361 32.1484 44.209 32.3926C43.8818 32.6367 43.7183 32.9321 43.7183 33.2788H42.356C42.356 32.8833 42.4951 32.5024 42.7734 32.1362C43.0566 31.7651 43.4375 31.4722 43.916 31.2573C44.3994 31.0425 44.9292 30.9351 45.5054 30.9351C46.4185 30.9351 47.1338 31.1646 47.6514 31.6235C48.1689 32.0776 48.4375 32.7051 48.457 33.5059V37.1533C48.457 37.8809 48.5498 38.4595 48.7354 38.8892V39.0063H47.3145ZM45.0659 37.9736C45.4907 37.9736 45.8936 37.8638 46.2744 37.644C46.6553 37.4243 46.9312 37.1387 47.1021 36.7871V35.1611H46.04C44.3799 35.1611 43.5498 35.647 43.5498 36.6187C43.5498 37.0435 43.6914 37.3755 43.9746 37.6147C44.2578 37.854 44.6216 37.9736 45.0659 37.9736ZM52.4194 29.1626V31.0815H53.8989V32.1289H52.4194V37.0435C52.4194 37.3608 52.4854 37.6001 52.6172 37.7612C52.749 37.9175 52.9736 37.9956 53.291 37.9956C53.4473 37.9956 53.6621 37.9663 53.9355 37.9077V39.0063C53.5791 39.104 53.2324 39.1528 52.8955 39.1528C52.29 39.1528 51.8335 38.9697 51.5259 38.6035C51.2183 38.2373 51.0645 37.7173 51.0645 37.0435V32.1289H49.6216V31.0815H51.0645V29.1626H52.4194ZM58.7769 39.1528C57.7026 39.1528 56.8286 38.8013 56.1548 38.0981C55.481 37.3901 55.144 36.4453 55.144 35.2637V35.0146C55.144 34.2285 55.293 33.5278 55.5908 32.9126C55.8936 32.2925 56.3135 31.8091 56.8506 31.4624C57.3926 31.1108 57.9785 30.9351 58.6084 30.9351C59.6387 30.9351 60.4395 31.2744 61.0107 31.9531C61.582 32.6318 61.8677 33.6035 61.8677 34.8682V35.4321H56.499C56.5186 36.2134 56.7456 36.8457 57.1802 37.3291C57.6196 37.8076 58.1763 38.0469 58.8501 38.0469C59.3286 38.0469 59.7339 37.9492 60.0659 37.7539C60.3979 37.5586 60.6885 37.2998 60.9375 36.9775L61.7651 37.6221C61.1011 38.6426 60.105 39.1528 58.7769 39.1528ZM58.6084 32.0483C58.0615 32.0483 57.6025 32.2485 57.2314 32.6489C56.8604 33.0444 56.6309 33.6011 56.543 34.3188H60.5127V34.2163C60.4736 33.5278 60.2881 32.9956 59.9561 32.6196C59.624 32.2388 59.1748 32.0483 58.6084 32.0483Z" fill="#EF652A"/>
<g filter="url(#filter0_d)">
<path d="M41.2656 5.16797L36.8958 0.743555C36.4271 0.268945 35.7917 0 35.1302 0H24.5C23.1198 0.00527344 22 1.13906 22 2.53652V24.474C22 25.8715 23.1198 27.0053 24.5 27.0053H39.5C40.8802 27.0053 42 25.8715 42 24.474V6.96094C42 6.29121 41.7344 5.64258 41.2656 5.16797ZM39.2969 6.75527H35.3333V2.74219L39.2969 6.75527ZM24.5 24.474V2.53652H32.8333V8.0209C32.8333 8.72227 33.3906 9.28652 34.0833 9.28652H39.5V24.474H24.5ZM26.1667 21.9428H37.8333V15.1928L36.6094 13.9535C36.3646 13.7057 35.9688 13.7057 35.724 13.9535L31.1667 18.5678L29.1094 16.4848C28.8646 16.2369 28.4688 16.2369 28.224 16.4848L26.1667 18.5678V21.9428ZM28.6667 9.28652C27.2865 9.28652 26.1667 10.4203 26.1667 11.8178C26.1667 13.2152 27.2865 14.349 28.6667 14.349C30.0469 14.349 31.1667 13.2152 31.1667 11.8178C31.1667 10.4203 30.0469 9.28652 28.6667 9.28652Z" fill="url(#paint0_linear)"/>
</g>
<defs>
<filter id="filter0_d" x="18" y="0" width="28" height="35.0053" filterUnits="userSpaceOnUse" color-interpolation-filters="sRGB">
<feFlood flood-opacity="0" result="BackgroundImageFix"/>
<feColorMatrix in="SourceAlpha" type="matrix" values="0 0 0 0 0 0 0 0 0 0 0 0 0 0 0 0 0 0 127 0"/>
<feOffset dy="4"/>
<feGaussianBlur stdDeviation="2"/>
<feColorMatrix type="matrix" values="0 0 0 0 1 0 0 0 0 0.375833 0 0 0 0 0.108333 0 0 0 0.25 0"/>
<feBlend mode="normal" in2="BackgroundImageFix" result="effect1_dropShadow"/>
<feBlend mode="normal" in="SourceGraphic" in2="effect1_dropShadow" result="shape"/>
</filter>
<linearGradient id="paint0_linear" x1="42" y1="0.00555652" x2="21.9584" y2="26.9746" gradientUnits="userSpaceOnUse">
<stop stop-color="#FF068D"/>
<stop offset="0.973958" stop-color="#FCB707"/>
<stop offset="1" stop-color="#0066FF"/>
</linearGradient>
</defs>
</svg>
