<svg width="30" height="39" viewBox="0 0 30 39" fill="none" xmlns="http://www.w3.org/2000/svg">
<g filter="url(#filter0_d)">
<path d="M23.9375 9.5H20.5V6.78571C20.5 5.28862 21.7332 4.07143 23.25 4.07143H23.5938C24.1652 4.07143 24.625 3.61763 24.625 3.05357V1.01786C24.625 0.453795 24.1652 0 23.5938 0H23.25C19.4516 0 16.375 3.03661 16.375 6.78571V16.9643C16.375 18.0882 17.2988 19 18.4375 19H23.9375C25.0762 19 26 18.0882 26 16.9643V11.5357C26 10.4118 25.0762 9.5 23.9375 9.5ZM11.5625 9.5H8.125V6.78571C8.125 5.28862 9.3582 4.07143 10.875 4.07143H11.2188C11.7902 4.07143 12.25 3.61763 12.25 3.05357V1.01786C12.25 0.453795 11.7902 0 11.2188 0H10.875C7.07656 0 4 3.03661 4 6.78571V16.9643C4 18.0882 4.92383 19 6.0625 19H11.5625C12.7012 19 13.625 18.0882 13.625 16.9643V11.5357C13.625 10.4118 12.7012 9.5 11.5625 9.5Z" fill="url(#paint0_linear)"/>
</g>
<path d="M8.60596 25.4932H5.17822V35H3.7793V25.4932H0.358887V24.3359H8.60596V25.4932ZM12.5317 35.1465C11.4575 35.1465 10.5835 34.7949 9.90967 34.0918C9.23584 33.3838 8.89893 32.439 8.89893 31.2573V31.0083C8.89893 30.2222 9.04785 29.5215 9.3457 28.9062C9.64844 28.2861 10.0684 27.8027 10.6055 27.4561C11.1475 27.1045 11.7334 26.9287 12.3633 26.9287C13.3936 26.9287 14.1943 27.2681 14.7656 27.9468C15.3369 28.6255 15.6226 29.5972 15.6226 30.8618V31.4258H10.2539C10.2734 32.207 10.5005 32.8394 10.9351 33.3228C11.3745 33.8013 11.9312 34.0405 12.605 34.0405C13.0835 34.0405 13.4888 33.9429 13.8208 33.7476C14.1528 33.5522 14.4434 33.2935 14.6924 32.9712L15.52 33.6157C14.856 34.6362 13.8599 35.1465 12.5317 35.1465ZM12.3633 28.042C11.8164 28.042 11.3574 28.2422 10.9863 28.6426C10.6152 29.0381 10.3857 29.5947 10.2979 30.3125H14.2676V30.21C14.2285 29.5215 14.043 28.9893 13.7109 28.6133C13.3789 28.2324 12.9297 28.042 12.3633 28.042ZM19.856 29.9683L21.6138 27.0752H23.1958L20.603 30.9937L23.2764 35H21.709L19.8779 32.0337L18.0469 35H16.4722L19.1455 30.9937L16.5527 27.0752H18.1201L19.856 29.9683ZM26.4771 25.1562V27.0752H27.9565V28.1226H26.4771V33.0371C26.4771 33.3545 26.543 33.5938 26.6748 33.7549C26.8066 33.9111 27.0312 33.9893 27.3486 33.9893C27.5049 33.9893 27.7197 33.96 27.9932 33.9014V35C27.6367 35.0977 27.29 35.1465 26.9531 35.1465C26.3477 35.1465 25.8911 34.9634 25.5835 34.5972C25.2759 34.231 25.1221 33.7109 25.1221 33.0371V28.1226H23.6792V27.0752H25.1221V25.1562H26.4771Z" fill="#2AEF9C"/>
<defs>
<filter id="filter0_d" x="0" y="0" width="30" height="27" filterUnits="userSpaceOnUse" color-interpolation-filters="sRGB">
<feFlood flood-opacity="0" result="BackgroundImageFix"/>
<feColorMatrix in="SourceAlpha" type="matrix" values="0 0 0 0 0 0 0 0 0 0 0 0 0 0 0 0 0 0 127 0"/>
<feOffset dy="4"/>
<feGaussianBlur stdDeviation="2"/>
<feColorMatrix type="matrix" values="0 0 0 0 0.2238 0 0 0 0 0.9 0 0 0 0 0.165 0 0 0 0.25 0"/>
<feBlend mode="normal" in2="BackgroundImageFix" result="effect1_dropShadow"/>
<feBlend mode="normal" in="SourceGraphic" in2="effect1_dropShadow" result="shape"/>
</filter>
<linearGradient id="paint0_linear" x1="21.7692" y1="6.71612" x2="6.98457" y2="19.4343" gradientUnits="userSpaceOnUse">
<stop stop-color="#68E8E8"/>
<stop offset="1" stop-color="#68E875"/>
</linearGradient>
</defs>
</svg>
